# xmcd
# 
# Track frame offsets:
#     150
#     19833
#     38198
#     54860
#     73250
#     93165
#     99290
#     121165
#     141925
#     165275
# 
# Disc length: 2520
# 
# Revision: 3
# Processed by: cddbd v1.5.2PL0 Copyright (c) Steve Scherf et al.
# Submitted via: BonkEnc v1.0.6
# 
DISCID=7709d60a
DTITLE=Anthem - Bound To Break Remaster
DYEAR=1999
DGENRE=Heavy Metal
TTITLE0=Bound To Break
TTITLE1=Empty Eyes
TTITLE2=Show Must Go On
TTITLE3=Rock 'N' Roll Survivor
TTITLE4=Soldiers
TTITLE5=Limited Lights
TTITLE6=Machine Made Dog
TTITLE7=No More Night
TTITLE8=Headstrong
TTITLE9=Fire 'N' The Sword
EXTD=YEAR: 1987
EXTT0=
EXTT1=
EXTT2=
EXTT3=
EXTT4=
EXTT5=
EXTT6=
EXTT7=
EXTT8=
EXTT9=
PLAYORDER=
